<?xml version="1.0" encoding="utf-8"?>
<!-- Generator: Adobe Illustrator 23.0.3, SVG Export Plug-In . SVG Version: 6.00 Build 0)  -->
<svg version="1.1" id="Layer_1" xmlns="http://www.w3.org/2000/svg" xmlns:xlink="http://www.w3.org/1999/xlink" x="0px" y="0px"
	 viewBox="0 0 48 48" style="enable-background:new 0 0 48 48;" xml:space="preserve">
<style type="text/css">
	.st0{fill:#FFFFFF;}
</style>
<path class="st0" d="M9.4,41.2c-2.4,0-4.4-0.8-6-2.5c-1.6-1.7-2.4-3.7-2.5-6c0-0.3,0-0.6,0.1-1s0.1-0.7,0.2-1l4.2-16.9
	c0.5-2,1.6-3.6,3.3-4.9s3.5-1.9,5.6-1.9h19.5c2.1,0,3.9,0.7,5.6,1.9s2.8,3,3.3,4.9l4.2,16.8c0.1,0.4,0.1,0.7,0.2,1.1
	c0,0.4,0.1,0.7,0.1,1c0,2.3-0.8,4.3-2.5,6s-3.7,2.5-6.1,2.5c-1.6,0-3.1-0.4-4.5-1.3s-2.4-2-3.2-3.5l-1.4-2.9
	c-0.1-0.1-0.2-0.2-0.3-0.3c-0.1-0.1-0.3-0.1-0.5-0.1h-9.5c-0.2,0-0.3,0-0.5,0.1s-0.2,0.1-0.3,0.3l-1.4,2.9c-0.7,1.5-1.7,2.6-3.1,3.5
	S11.1,41.1,9.4,41.2z M9.6,36.5c0.6,0,1.2-0.2,1.8-0.5c0.6-0.4,1.1-0.9,1.5-1.6l1.4-2.9c0.4-1,1.1-1.7,2-2.3c0.9-0.5,1.9-0.8,3-0.8
	h9.5c1.1,0,2,0.3,2.9,0.8c0.9,0.5,1.6,1.3,2.1,2.2l1.4,2.8c0.4,0.7,0.9,1.2,1.5,1.6c0.6,0.3,1.2,0.5,1.8,0.5c1,0,1.9-0.3,2.7-1
	c0.8-0.7,1.2-1.6,1.3-2.7c0-0.1,0-0.3,0-0.5s-0.1-0.4-0.1-0.5L38,14.9c-0.2-1-0.7-1.8-1.5-2.4c-0.8-0.6-1.7-0.9-2.7-0.9H14.3
	c-1,0-1.9,0.3-2.7,0.9s-1.3,1.4-1.5,2.4L5.8,31.7c0,0,0,0.3-0.2,1c0,1.1,0.4,2,1.2,2.7S8.6,36.5,9.6,36.5z M27,21.5
	c-0.4,0-0.8-0.1-1-0.5c-0.3-0.3-0.5-0.7-0.5-1.1c0-0.4,0.1-0.7,0.5-1c0.3-0.3,0.7-0.4,1.1-0.4c0.4,0,0.7,0.1,1,0.4
	c0.3,0.3,0.4,0.6,0.4,1.1c0,0.4-0.1,0.8-0.4,1C27.8,21.4,27.4,21.5,27,21.5z M31,17.5c-0.4,0-0.8-0.1-1-0.5
	c-0.3-0.3-0.5-0.7-0.5-1.1c0-0.4,0.1-0.7,0.5-1c0.3-0.3,0.7-0.4,1.1-0.4c0.4,0,0.7,0.1,1,0.4c0.3,0.3,0.4,0.6,0.4,1.1
	c0,0.4-0.1,0.7-0.4,1.1C31.8,17.4,31.4,17.5,31,17.5z M31,25.5c-0.4,0-0.8-0.1-1-0.5c-0.3-0.3-0.5-0.7-0.5-1.1c0-0.4,0.1-0.7,0.5-1
	c0.3-0.3,0.7-0.4,1.1-0.4c0.4,0,0.7,0.1,1,0.4c0.3,0.3,0.4,0.6,0.4,1.1c0,0.4-0.1,0.8-0.4,1C31.8,25.4,31.4,25.5,31,25.5z M35,21.5
	c-0.4,0-0.8-0.1-1-0.5c-0.3-0.3-0.5-0.7-0.5-1.1c0-0.4,0.1-0.7,0.5-1c0.3-0.3,0.7-0.4,1.1-0.4c0.4,0,0.7,0.1,1,0.4s0.4,0.6,0.4,1.1
	c0,0.4-0.1,0.8-0.4,1C35.8,21.4,35.4,21.5,35,21.5z M17,24.8c-0.3,0-0.6-0.1-0.9-0.4s-0.4-0.5-0.4-0.9v-2.3h-2.3
	c-0.3,0-0.6-0.1-0.9-0.4s-0.4-0.5-0.4-0.9s0.1-0.6,0.4-0.9s0.5-0.4,0.9-0.4h2.3v-2.3c0-0.3,0.1-0.6,0.4-0.9s0.5-0.4,0.9-0.4
	s0.6,0.1,0.9,0.4s0.4,0.5,0.4,0.9v2.3h2.3c0.3,0,0.6,0.1,0.9,0.4s0.4,0.5,0.4,0.9s-0.1,0.6-0.4,0.9s-0.5,0.4-0.9,0.4h-2.3v2.3
	c0,0.3-0.1,0.6-0.4,0.9S17.3,24.8,17,24.8z"/>
</svg>
